<?xml version="1.0" encoding="UTF-8"?>
<svg width="47px" height="52px" viewBox="0 0 47 52" version="1.1" xmlns="http://www.w3.org/2000/svg" xmlns:xlink="http://www.w3.org/1999/xlink">
    <title>Solidary_deliveries</title>
    <g id="PAGES" stroke="none" stroke-width="1" fill="none" fill-rule="evenodd" stroke-linecap="round" stroke-linejoin="round">
        <g id="01_HOME" transform="translate(-297.000000, -1422.000000)" fill-rule="nonzero" stroke="#222221" stroke-width="1.12148185">
            <g id="Solidary_deliveries" transform="translate(298.000000, 1423.000000)">
                <path d="M20.8537198,13.9788572 C19.9834652,13.9805604 19.2757806,13.2779566 19.2713105,12.4077117 L19.2713105,7.31154234 C19.2520699,6.67968747 18.7576735,6.16495424 18.1271069,6.12027218 L17.9648085,6.12027218 L13.4350605,5.51814516 C12.7958009,5.5458867 12.2912333,6.07118022 12.2892339,6.71103831 L12.2892339,11.8055847 C12.2618806,12.6593604 11.5618499,13.3373228 10.7076361,13.3373228 C9.85342228,13.3373228 9.15339154,12.6593604 9.12603831,11.8055847 L9.12603831,6.71590726 C9.13854898,4.3457666 11.0648884,2.4317616 13.4350605,2.43447292 L13.8164617,2.43447292 L18.2910282,2.97655242 C20.5771675,3.0863594 22.3758012,4.96921484 22.3809476,7.25798387 L22.3809476,12.3525302 C22.4123359,12.7754247 22.2649584,13.1921035 21.9746612,13.5012192 C21.6843639,13.8103348 21.2777503,13.9835594 20.8537198,13.9788572 Z" id="Path" fill="#FFFFFF"></path>
                <path d="M28.3291835,11.571875 C27.4690539,11.5638424 26.7777998,10.8609706 26.7841028,10.0008266 L26.7841028,4.90628024 C26.7720703,4.28026035 26.2882573,3.76489435 25.664244,3.7133871 L25.5019456,3.7133871 L21.0809375,3.11612903 C20.4950403,3.11612903 19.9627016,3.65820565 19.9627016,4.30902218 L19.9627016,9.45875 C19.9809863,10.022989 19.6904054,10.5523717 19.2045799,10.839902 C18.7187545,11.1274323 18.1148644,11.1274323 17.629039,10.839902 C17.1432136,10.5523717 16.8526326,10.022989 16.8709173,9.45875 L16.8709173,4.36420363 C16.8555907,2.02086542 18.7376823,0.106123814 21.0809375,0.0811491935 L21.4542238,0.0811491935 L25.8249194,0.623225806 C28.0630141,0.731965726 29.8223286,2.62923387 29.8223286,4.90628024 L29.8223286,10.0008266 C29.8223286,10.8739919 29.182873,11.571875 28.3291835,11.571875 Z" id="Path" fill="#FFFFFF"></path>
                <path d="M39.7631048,45.7340625 C39.7935732,46.2835287 39.3856658,46.7594207 38.838004,46.8133468 L11.4793649,49.4653024 L12.8329335,9.18933468 C12.842358,8.90606557 12.9685716,8.63932151 13.1816235,8.4524015 C13.3946754,8.26548149 13.675574,8.17504777 13.9576613,8.20256048 L36.9163911,10.4357863 C37.4202116,10.4839281 37.8133076,10.8928858 37.8414919,11.3982157 L39.7631048,45.7340625 Z" id="Path" fill="#FFC144"></path>
                <path d="M11.2359173,49.4653024 L0.769294355,46.1057258 C0.312782698,45.9596599 0.0182919483,45.516913 0.0600504032,45.0394254 L3.03335685,11.5442843 C3.07031544,11.1221153 3.36309279,10.7661393 3.77019153,10.6483972 L11.271623,8.48658266 C11.5872792,8.39615225 11.9271453,8.46205477 12.1861249,8.66391129 C12.4451046,8.86576782 12.5919941,9.17925713 12.581371,9.50743952 L11.2359173,49.4653024 Z" id="Path" fill="#FFC144"></path>
                <circle id="Oval" fill="#FFFFFF" cx="35.2284879" cy="40.654123" r="9.57560484"></circle>
                <path d="M37.4454839,36.6015323 L37.437369,36.6015323 C36.5725839,36.5999299 35.7562383,37.000605 35.2284879,37.6856855 C34.4939896,36.7376444 33.2379557,36.3615529 32.1033003,36.7499175 C30.968645,37.138282 30.2064994,38.2051467 30.2069756,39.4044254 C30.2069756,42.0255444 34.8341028,45.7048488 35.0304839,45.8606552 C35.1468763,45.9496728 35.3084765,45.9496728 35.424869,45.8606552 C35.62125,45.6983569 40.25,42.0255444 40.25,39.4044254 C40.2455388,37.8576487 38.9922628,36.6050981 37.4454839,36.6015323 L37.4454839,36.6015323 Z" id="Path" fill="#FFC144"></path>
            </g>
        </g>
    </g>
</svg>