<?xml version="1.0" encoding="UTF-8"?>
<svg width="52px" height="50px" viewBox="0 0 52 50" version="1.1" xmlns="http://www.w3.org/2000/svg" xmlns:xlink="http://www.w3.org/1999/xlink">
    <title>CO2_emissions</title>
    <g id="PAGES" stroke="none" stroke-width="1" fill="none" fill-rule="evenodd" stroke-linecap="round" stroke-linejoin="round">
        <g id="01_HOME" transform="translate(-295.000000, -1424.000000)" fill-rule="nonzero" stroke="#222221" stroke-width="1.14433121">
            <g id="CO2_emissions" transform="translate(296.000000, 1424.000000)">
                <path d="M13.3486959,42 L38.7721918,42 C44.4949693,41.9820267 49.2944012,37.7016607 49.9296741,32.0492111 C50.564947,26.3967615 46.8340739,21.1694426 41.2563245,19.896998 C39.5494747,13.5719465 33.7230256,9 27.0272886,9 C18.9440683,9.00859187 12.3625922,15.4604494 12.2430507,23.4930705 C7.32951673,24.0722618 3.72229063,28.3581351 4.01681658,33.2669509 C4.31134253,38.1757667 8.40548388,42.0052303 13.3534548,42 L13.3486959,42 Z" id="Path" fill="#FFFFFF"></path>
                <path d="M27.2764512,48 L41.6317001,48 C44.8735459,48.006377 47.6005696,45.5368774 47.9603321,42.2689945 C48.3200947,39.0011116 46.1972794,35.9823176 43.0338929,35.2632484 C41.9564065,31.1883495 38.0813822,28.5433966 33.9539131,29.0655791 C29.826444,29.5877616 26.710697,33.1171447 26.6530764,37.3356504 C23.8799747,37.6698944 21.8441042,40.1382551 22.0093872,42.9658219 C22.1746702,45.7933886 24.4838387,48.0004506 27.2764512,48 L27.2764512,48 Z" id="Path" fill="#FFFFFF"></path>
                <circle id="Oval" fill="#FFFFFF" cx="12" cy="9" r="2"></circle>
                <circle id="Oval" fill="#FFFFFF" cx="6" cy="17" r="3"></circle>
                <polygon id="Rectangle" fill="#FFC144" transform="translate(24.053856, 25.025875) rotate(45.000000) translate(-24.053856, -25.025875) " points="20.9923487 -5.88754292 27.1396186 -5.88995456 27.1153624 55.9392924 20.9680925 55.941704"></polygon>
            </g>
        </g>
    </g>
</svg>