<?xml version="1.0" encoding="UTF-8"?>
<svg width="51px" height="50px" viewBox="0 0 51 50" version="1.1" xmlns="http://www.w3.org/2000/svg" xmlns:xlink="http://www.w3.org/1999/xlink">
    <title>Food_waste</title>
    <g id="PAGES" stroke="none" stroke-width="1" fill="none" fill-rule="evenodd" stroke-linecap="round" stroke-linejoin="round">
        <g id="01_HOME" transform="translate(-296.000000, -1424.000000)" fill-rule="nonzero" stroke="#222221" stroke-width="1.52184524">
            <g id="Food_waste" transform="translate(297.000000, 1425.000000)">
                <path d="M21.306542,19.9886148 L16.9876612,28.6464263 C13.9372527,34.7670588 18.3212205,42 25.0873707,42 L39.9156247,42 C46.6759894,42 51.0599572,34.7670588 48.0153342,28.6464263 L43.7007925,19.9886148 C39.0550305,10.6704617 25.9551967,10.6704617 21.306542,19.9886148 Z" id="Path" fill="#FFFFFF"></path>
                <path d="M31,10.5186427 C31,10.5186427 27.5085098,7.23448893 23.0184097,10.3252982 C23.0184097,10.3252982 22.242847,15.007482 30.7594589,13.8014445 L31,10.5186427 Z" id="Path" fill="#FFFFFF"></path>
                <path d="M34,10.5186427 C34,10.5186427 37.4914902,7.23448893 41.9815903,10.3252982 C41.9815903,10.3252982 42.757153,15.007482 34.2405411,13.8014445 L34,10.5186427 Z" id="Path" fill="#FFFFFF"></path>
                <circle id="Oval" fill="#FFFFFF" cx="32.5" cy="12.5" r="2.5"></circle>
                <line x1="31" y1="15" x2="29" y2="16" id="Path" fill="#FFFFFF"></line>
                <line x1="32.2347917" y1="15" x2="31.7652083" y2="16" id="Path" fill="#FFFFFF"></line>
                <line x1="34" y1="15" x2="35" y2="17" id="Path" fill="#FFFFFF"></line>
                <path d="M5.30313263,25.9844373 L0.987834375,34.6438919 C-2.06310898,40.7656861 2.32162753,48 9.08896419,48 L23.9140317,48 C30.6755819,48 35.0603184,40.7656861 32.0151615,34.6438919 L27.6998633,25.9844373 C23.0532867,16.6718542 9.94392271,16.6718542 5.30313263,25.9844373 Z" id="Path" fill="#FFC144"></path>
                <path d="M15,16.5190387 C15,16.5190387 11.5078711,13.2340286 7.01840775,16.3256437 C7.01840775,16.3256437 6.24270313,21.0076959 14.7623311,19.8013439 L15,16.5190387 Z" id="Path" fill="#FFC144"></path>
                <path d="M18,16.5190387 C18,16.5190387 21.4981418,13.2340286 25.9815936,16.3256437 C25.9815936,16.3256437 26.7570151,21.0076959 18.2419548,19.8013439 L18,16.5190387 Z" id="Path" fill="#FFC144"></path>
                <circle id="Oval" fill="#FFC144" cx="16.5" cy="18.5" r="2.5"></circle>
                <line x1="15" y1="20" x2="13" y2="21" id="Path" fill="#FFFFFF"></line>
                <line x1="16.2340625" y1="21" x2="15.7659375" y2="22" id="Path" fill="#FFFFFF"></line>
                <line x1="18" y1="20" x2="19" y2="22" id="Path" fill="#FFFFFF"></line>
                <path d="M7,14 C6.50035486,13.25 7.05110007,12.9130435 6.55145493,12.1644022 C6.05180979,11.4157609 5.49964514,11.7567935 5,11.0013587 C4.50035486,10.2459239 5.05110007,9.91440217 4.55145493,9.16440217 C4.05180979,8.41440217 3.50106458,8.75679348 3,8" id="Path" fill="#FFFFFF"></path>
                <path d="M19.1150613,12 C19.1011746,10.998088 20.0137298,10.9904398 19.9998431,9.98852772 C19.9859564,8.98661568 19.0714174,8.9957935 19.0575307,8 C19.0436439,7.0042065 19.9561992,6.99043977 19.9423124,5.98852772 C19.9284257,4.98661568 19.0138867,4.9957935 19,4" id="Path" fill="#FFFFFF"></path>
                <path d="M39,7 C39.2340629,6.12517469 39.7704569,6.3138351 40.0045198,5.43900978 C40.2385826,4.56418447 39.7009695,4.37552406 39.9350324,3.50069874 C40.1690952,2.62587343 40.7054893,2.81872629 40.9395521,1.93831104 C41.173615,1.05789579 40.6360019,0.874825314 40.8700647,0" id="Path" fill="#FFFFFF"></path>
                <path d="M33,8 C33.085426,7.00096209 33.5615195,7.09024437 33.6469455,6.08966712 C33.7323714,5.08908986 33.2573197,5.00134693 33.3427457,4.00076967 C33.4281716,3.00019242 33.9042651,3.0894747 33.9896911,2.08889744 C34.0751171,1.08832018 33.5990236,1.00057726 33.6854913,0" id="Path" fill="#FFFFFF"></path>
                <path d="M26.764988,7 C26.5440127,6.12465592 27.1731591,5.97325993 26.9521837,5.09791585 C26.7312084,4.22257177 26.1076919,4.37534408 25.882494,3.5 C25.6572962,2.62465592 26.2906651,2.47325993 26.0696897,1.59791585 C25.8487143,0.722571766 25.2251978,0.875344082 25,0" id="Path" fill="#FFFFFF"></path>
                <path d="M12.5523444,13 C12.3589666,12.1244918 13.1644116,12.0201355 12.9692597,11.1459826 C12.7741079,10.2718296 11.970437,10.3748306 11.7770592,9.49932236 C11.5836815,8.62381413 12.3873523,8.52081317 12.1939746,7.64530494 C12.0005968,6.76979671 11.1951519,6.87415295 11,6" id="Path" fill="#FFFFFF"></path>
            </g>
        </g>
    </g>
</svg>