<?xml version="1.0" encoding="UTF-8"?>
<svg width="46px" height="49px" viewBox="0 0 46 49" version="1.1" xmlns="http://www.w3.org/2000/svg" xmlns:xlink="http://www.w3.org/1999/xlink">
    <title>Sustainable_packaging</title>
    <g id="PAGES" stroke="none" stroke-width="1" fill="none" fill-rule="evenodd" stroke-linecap="round" stroke-linejoin="round">
        <g id="01_HOME" transform="translate(-296.000000, -1424.000000)" fill-rule="nonzero" stroke="#222221" stroke-width="1.14300752">
            <g id="Sustainable_packaging" transform="translate(297.000000, 1425.000000)">
                <ellipse id="Oval" fill="#FFFFFF" transform="translate(20.920962, 14.520065) rotate(-10.510000) translate(-20.920962, -14.520065) " cx="20.9209618" cy="14.5200653" rx="19.8115789" ry="3.49849624"></ellipse>
                <path d="M35.0759398,3.89218045 C31.251762,6.79045702 28.9280654,11.2502791 28.7439098,16.0451128 L40.4105263,13.8947368 C39.912619,10.0212543 38.0152477,6.46360963 35.0759398,3.89218045 Z" id="Path" fill="#FFFFFF"></path>
                <circle id="Oval" fill="#FFFFFF" transform="translate(23.377459, 14.650186) rotate(-5.770000) translate(-23.377459, -14.650186) " cx="23.3774588" cy="14.6501856" r="7.71984962"></circle>
                <path d="M26.2627068,18.0962406 C24.5998955,14.163659 21.4479729,11.0492027 17.4957895,9.43353383 C17.4825564,9.35909774 17.4230075,9.25323308 17.4097744,9.17879699 C15.5141455,4.72952615 11.7267961,1.36211684 7.08631579,0 C4.98974038,3.95327707 4.64595455,8.60428543 6.13849624,12.8228571 C4.67786494,12.4636339 3.17607162,12.299549 1.67233083,12.3348872 C0.867810881,17.1091623 2.25526108,21.9919588 5.45009423,25.6298148 C8.64492738,29.2676708 13.3076729,31.2740418 18.1458647,31.092782 C18.3469754,29.8419242 18.4102111,28.5727739 18.3344361,27.3081203 C20.3155676,29.4732922 22.8558527,31.0496656 25.6754887,31.863609 C27.9152653,27.5918846 28.1306076,22.5431693 26.2627068,18.0962406 Z" id="Path" fill="#FFFFFF"></path>
                <path d="M40.2500752,10.938797 C40.6040602,12.846015 32.1828571,16.0318797 21.4144361,18.0284211 C10.646015,20.0249624 1.64421053,20.0696241 1.29022556,18.1640602 L7.93984962,45.7037594 C8.29383459,47.6109774 15.8003008,47.8425564 26.5687218,45.846015 C37.3371429,43.8494737 44.2679699,40.9415038 43.9090226,39.0342857 L40.2500752,10.938797 Z" id="Path" fill="#FFC144"></path>
                <path d="M21.8213534,19.3831579 C16.5496241,20.3607519 11.5078195,20.9099248 7.60571429,20.936391 C2.74255639,20.9876692 0.433383459,20.2168421 0.107518797,18.455188 C0.0409373631,18.1079379 0.116090435,17.7484841 0.316216517,17.4569961 C0.5163426,17.1655082 0.82479601,16.9662307 1.17278195,16.903609 C1.79921206,16.7939565 2.41966658,17.1256847 2.67639098,17.7075188 C3.80781955,18.3873684 10.3052632,18.8075188 21.2986466,16.7679699 C32.2920301,14.7284211 38.2105263,12.013985 39.0193985,10.9735338 C39.0385576,10.3336924 39.5039883,9.79506351 40.1342857,9.68330827 C40.4817707,9.61728347 40.8412255,9.69311546 41.1324276,9.89388014 C41.4236296,10.0946448 41.6223399,10.4036311 41.6842105,10.7518797 C42.0150376,12.5085714 40.1326316,14.0601504 35.5804511,15.7903759 C32.0042105,17.1484211 27.0930827,18.4055639 21.8213534,19.3831579 Z" id="Path" fill="#FFC144"></path>
                <path d="M17.8282707,37.937594 C16.9218045,37.2378947 16.5148872,35.5324812 16.5148872,35.5324812 L16.5148872,35.5324812 C16.0103759,33.7989474 16.1443609,31.8106767 17.026015,29.9084211 C17.9705263,27.8606015 20.4120301,26.4942857 23.0983459,25.2206015 C25.9533835,23.8675188 27.475188,22.2150376 27.475188,22.2150376 C27.475188,22.2150376 30.1383459,31.4054135 28.4114286,35.1520301 C26.8499248,38.5479699 23.4490226,40.3675188 20.4583459,39.5503759 C19.8760902,40.8455639 19.4906767,43.2010526 19.4906767,43.2010526 L17.8762406,43.3664662 C19.2706767,38.0831579 20.593985,34.8691729 23.7864662,30.1664662 C20.2234586,32.3780451 17.8282707,37.937594 17.8282707,37.937594 Z" id="Path" fill="#FFFFFF"></path>
            </g>
        </g>
    </g>
</svg>