<?xml version="1.0" encoding="UTF-8"?>
<svg width="56px" height="45px" viewBox="0 0 56 45" version="1.1" xmlns="http://www.w3.org/2000/svg" xmlns:xlink="http://www.w3.org/1999/xlink">
    <title>business</title>
    <g id="PAGES" stroke="none" stroke-width="1" fill="none" fill-rule="evenodd" stroke-linecap="round" stroke-linejoin="round">
        <g id="10_What-we-do-2" transform="translate(-771.000000, -691.000000)" fill-rule="nonzero" stroke="#222221" stroke-width="1.2">
            <g id="business" transform="translate(771.000000, 691.857143)">
                <path d="M52.7721227,39.0006204 L32,43.1428571 L32,11.1428571 L52.90445,17.0907399 C54.1234815,17.3272515 55.0029018,18.3971397 55,19.6401427 L55,36.4240732 C55,37.725919 54.0455012,38.8138669 52.7721227,39.0006204 L52.7721227,39.0006204 Z" id="Path" fill="#FFFFFF"></path>
                <path d="M38.2845623,21.1015976 L49,24.075539 L49,30.5022491 L38.2845623,32.5739103 L38.2845623,21.1015976 Z M10.3020647,39.0006204 L31.7620733,43.1428571 L31.7620733,11.1428571 L10.1653624,14.8866139 C8.9060274,15.1231256 7.99753185,16.1930137 8.00053701,17.4360168 L8.00053701,36.4523034 C7.97364477,37.7270048 8.95969362,38.8149527 10.3031852,39.0017062 L10.3020647,39.0006204 Z" id="Shape" fill="#FFFFFF"></path>
                <path d="M15.8027775,39.627354 L23,41.1428571 L23,30.5789406 C22.9947613,29.9003706 22.484786,29.3476743 21.8455737,29.3278073 L15.7279346,29.1428571 C15.3046928,29.2251018 14.9979411,29.6175482 15,30.0741355 L15,38.6688771 C15.0256415,39.1747701 15.3516696,39.5729569 15.8027775,39.626266 L15.8027775,39.627354 Z" id="Path" fill="#FFFFFF"></path>
                <polygon id="Path" fill="#FFC244" points="9.57588763 12.9346587 1 22.1428571 6.90370659 21.9055324 15 12.1428571"></polygon>
                <path d="M15.3049404,13.4481598 L7,23.1428571 L13.1127051,22.9071849 L20.8707074,12.6875813 L15.3049404,13.4481598 Z M32,11.1428571 L26.4353537,11.9023644 L19.1435937,22.6972224 L25.3661347,22.4347693 L32,11.1428571 Z" id="Shape" fill="#FFFFFF"></path>
                <polygon id="Path" fill="#FFC244" points="20.5701186 11.9299483 13 22.1428571 18.8837385 21.934037 26 11.1428571"></polygon>
                <path d="M29.397533,0.164836916 L11.9520646,4.07231796 C10.8326864,4.23536442 10.0015696,5.20083926 10,6.33995275 L10,13.1428571 L31.9995464,9.86428171 L31.9995464,2.43247171 C32.0272746,1.03949605 30.779506,-0.0250635346 29.3953148,0.164836916 L29.397533,0.164836916 Z" id="Path" fill="#FFFFFF"></path>
            </g>
        </g>
    </g>
</svg>