<svg xmlns="http://www.w3.org/2000/svg" width="61" height="60" viewBox="0 0 61 60">
    <g fill="none" fill-rule="evenodd" stroke="#222221" stroke-linecap="round" stroke-linejoin="round" stroke-width="1.091">
        <path fill="#FFC244" fill-rule="nonzero" d="M35.782 12.436L26.836 12c-.981 0-1.854.655-1.854 1.636l-.327 6.11c0 .981.654 1.854 1.636 1.854l8.945.436c.982 0 1.855-.654 1.855-1.636l.327-6.11c.11-.872-.654-1.745-1.636-1.854zm-1.418 6.873l-6.982-.327.218-4.146 6.982.328-.218 4.145z"/>
        <path fill="#FFF" fill-rule="nonzero" d="M44.51 47.89l-30.22-1.635c-.98 0-1.745-.873-1.745-1.855l.873-15.71c0-.98.873-1.745 1.855-1.745l30.218 1.637c.982 0 1.745.873 1.745 1.854l-.872 15.71c0 1.09-.873 1.854-1.855 1.745z"/>
        <path fill="#FFF" fill-rule="nonzero" d="M47.236 34.364L13.2 32.509c-.982 0-1.745-.873-1.745-1.854l.654-11.891c0-.982.873-1.746 1.855-1.746L48 18.873c.982 0 1.745.872 1.745 1.854l-.654 12c-.11.982-.873 1.746-1.855 1.637z"/>
        <g fill="#FFC244" fill-rule="nonzero">
            <path d="M19.964 36.982c-1.2-.11-2.073-1.091-1.964-2.182l.218-3.71c.11-1.2 1.091-2.072 2.182-1.963 1.2.11 2.073 1.091 1.964 2.182l-.11 3.6c-.109 1.2-1.09 2.073-2.29 2.073zM39.927 37.964c-1.2-.11-2.072-1.091-1.963-2.182l.218-3.71c.109-1.2 1.09-2.072 2.182-1.963 1.2.11 2.072 1.091 1.963 2.182L42.11 36c0 1.2-1.09 2.073-2.182 1.964z"/>
        </g>
        <path d="M20.4 29.018l.655-11.454M40.364 30l.545-11.455"/>
    </g>
</svg>
