<svg width="105" height="36" viewBox="0 0 105 36" fill="none" xmlns="http://www.w3.org/2000/svg">
<path d="M105 8.15859C105 7.89609 105 7.63359 105 7.37109C105 6.75859 104.912 6.23359 104.825 5.62109C104.737 5.00859 104.561 4.48359 104.298 3.95859C104.035 3.43359 103.684 2.99609 103.246 2.55859C102.807 2.12109 102.368 1.77109 101.842 1.50859C101.316 1.24609 100.789 1.07109 100.175 0.983594C99.5614 0.896094 99.0351 0.808594 98.4211 0.808594C98.1579 0.808594 97.8947 0.808594 97.6316 0.808594C97.2807 0.808594 97.0175 0.808594 96.6667 0.808594H8.33333C8.07018 0.808594 7.7193 0.808594 7.36842 0.808594C7.10526 0.808594 6.84211 0.808594 6.57895 0.808594C5.96491 0.808594 5.4386 0.896094 4.82456 0.983594C4.21053 1.07109 3.68421 1.24609 3.15789 1.50859C2.63158 1.77109 2.19298 2.12109 1.75439 2.55859C1.31579 2.99609 0.964912 3.43359 0.701754 3.95859C0.438597 4.48359 0.263158 5.09609 0.175439 5.62109C0.0877193 6.23359 0 6.84609 0 7.37109C0 7.63359 0 7.89609 0 8.15859C0 8.50859 0 8.77109 0 9.12109V27.4086C0 27.7586 0 28.0211 0 28.3711C0 28.6336 0 28.8961 0 29.1586C0 29.7711 0.0877193 30.2961 0.175439 30.9086C0.263158 31.5211 0.438597 32.0461 0.701754 32.5711C0.964912 33.1836 1.31579 33.6211 1.75439 34.0586C2.19298 34.4961 2.63158 34.8461 3.15789 35.1086C3.68421 35.3711 4.21053 35.5461 4.82456 35.6336C5.4386 35.7211 5.96491 35.8086 6.57895 35.8086C6.84211 35.8086 7.10526 35.8086 7.36842 35.8086C7.7193 35.8086 7.98246 35.8086 8.33333 35.8086H96.579C96.9298 35.8086 97.193 35.8086 97.5439 35.8086C97.807 35.8086 98.0702 35.8086 98.3333 35.8086C98.9474 35.8086 99.4737 35.7211 100.088 35.6336C100.702 35.5461 101.228 35.3711 101.754 35.1086C102.281 34.8461 102.719 34.4961 103.158 34.0586C103.596 33.6211 103.947 33.1836 104.211 32.6586C104.474 32.1336 104.649 31.6086 104.737 30.9961C104.825 30.3836 104.912 29.8586 104.912 29.2461C104.912 28.9836 104.912 28.7211 104.912 28.4586C104.912 28.1086 104.912 27.8461 104.912 27.4961V9.12109C105 8.85859 105 8.50859 105 8.15859ZM104.211 27.4961C104.211 27.8461 104.211 28.1086 104.211 28.4586C104.211 28.7211 104.211 28.9836 104.211 29.2461C104.211 29.7711 104.123 30.2961 104.035 30.9086C103.947 31.4336 103.772 31.9586 103.596 32.3961C103.333 32.8336 103.07 33.2711 102.719 33.6211C102.368 33.9711 101.93 34.3211 101.491 34.4961C101.053 34.7586 100.614 34.8461 100 34.9336C99.4737 35.0211 98.8597 35.0211 98.3333 35.1086C98.0702 35.1086 97.807 35.1086 97.5439 35.1086H96.579H7.36842C7.10526 35.1086 6.84211 35.1086 6.57895 35.1086C6.05263 35.1086 5.52632 35.1086 4.91228 34.9336C4.38597 34.8461 3.85965 34.6711 3.42105 34.4961C2.98246 34.2336 2.54386 33.9711 2.19298 33.6211C1.84211 33.2711 1.49123 32.8336 1.31579 32.3961C1.05263 31.9586 0.964912 31.5211 0.877193 30.9086C0.789474 30.2961 0.701754 29.6836 0.701754 29.2461C0.701754 29.0711 0.701754 28.4586 0.701754 28.4586V8.15859C0.701754 8.15859 0.701754 7.54609 0.701754 7.37109C0.701754 6.93359 0.701754 6.32109 0.877193 5.70859C1.05263 5.27109 1.14035 4.74609 1.40351 4.30859C1.66667 3.87109 1.92982 3.43359 2.2807 3.08359C2.63158 2.73359 3.07018 2.47109 3.50877 2.20859C3.94737 1.94609 4.47368 1.85859 5 1.77109C5.52632 1.59609 6.14035 1.59609 6.57895 1.59609H7.36842H97.5439H98.3333C98.7719 1.59609 99.386 1.59609 100 1.77109C100.526 1.85859 100.965 2.03359 101.491 2.20859C101.93 2.47109 102.368 2.73359 102.719 3.08359C103.07 3.43359 103.421 3.87109 103.596 4.30859C103.86 4.74609 103.947 5.27109 104.035 5.70859C104.123 6.23359 104.211 6.84609 104.211 7.37109C104.211 7.63359 104.211 7.89609 104.211 8.15859C104.211 8.50859 104.211 8.77109 104.211 9.12109V27.4961V27.4961Z" fill="white"/>
<path d="M21.7553 18.5718C21.7553 16.1218 23.7728 14.9843 23.8605 14.8968C22.7202 13.2343 20.9658 13.0593 20.3518 12.9718C18.8605 12.7968 17.457 13.8468 16.6676 13.8468C15.8781 13.8468 14.7377 12.9718 13.5097 12.9718C11.9307 12.9718 10.4395 13.9343 9.56229 15.3343C7.89562 18.2218 9.12369 22.5968 10.7904 24.9593C11.5798 26.0968 12.5447 27.4093 13.7728 27.4093C15.0009 27.3218 15.4395 26.6218 16.9307 26.6218C18.4219 26.6218 18.7728 27.4093 20.0886 27.4093C21.4044 27.4093 22.1939 26.2718 22.9833 25.0468C23.9483 23.7343 24.2991 22.4218 24.2991 22.3343C24.2991 22.4218 21.7553 21.4593 21.7553 18.5718Z" fill="white"/>
<path d="M19.2983 11.4844C19.9123 10.6969 20.4386 9.55938 20.2632 8.42188C19.2983 8.42188 18.1579 9.03437 17.4561 9.90937C16.8421 10.6094 16.3158 11.7469 16.4912 12.8844C17.5439 12.8844 18.6842 12.2719 19.2983 11.4844Z" fill="white"/>
<path d="M37.1077 24.5225H32.9849L32.02 27.4975H30.2656L34.213 16.6475H35.9674L39.9147 27.4975H38.1604L37.1077 24.5225ZM33.4235 23.21H36.7569L35.0902 18.3975H35.0025L33.4235 23.21Z" fill="white"/>
<path d="M48.4249 23.5595C48.4249 26.0095 47.1091 27.5845 45.0916 27.5845C43.9512 27.5845 43.074 27.0595 42.6354 26.1845V30.122H40.9688V19.622H42.5477V20.9345C42.9863 20.0595 43.9512 19.5345 45.0916 19.5345C47.0214 19.447 48.4249 21.1095 48.4249 23.5595ZM46.6705 23.5595C46.6705 21.9845 45.881 20.9345 44.5652 20.9345C43.3372 20.9345 42.46 21.9845 42.46 23.5595C42.46 25.1345 43.3372 26.1845 44.5652 26.1845C45.881 26.1845 46.6705 25.1345 46.6705 23.5595Z" fill="white"/>
<path d="M57.1085 23.5595C57.1085 26.0095 55.7927 27.5845 53.7752 27.5845C52.6348 27.5845 51.7576 27.0595 51.319 26.1845V30.122H49.6523V19.622H51.2313V20.9345C51.6699 20.0595 52.6348 19.5345 53.7752 19.5345C55.7927 19.447 57.1085 21.1095 57.1085 23.5595ZM55.4418 23.5595C55.4418 21.9845 54.6523 20.9345 53.3366 20.9345C52.1085 20.9345 51.2313 21.9845 51.2313 23.5595C51.2313 25.1345 52.1085 26.1845 53.3366 26.1845C54.6523 26.1845 55.4418 25.1345 55.4418 23.5595Z" fill="white"/>
<path d="M62.8975 24.4342C62.9852 25.4842 64.0378 26.1842 65.5291 26.1842C66.9326 26.1842 67.8975 25.4842 67.8975 24.5217C67.8975 23.6467 67.2834 23.2092 65.8799 22.8592L64.4764 22.5092C62.4589 21.9842 61.5817 21.1092 61.5817 19.6217C61.5817 17.7842 63.2484 16.4717 65.5291 16.4717C67.8098 16.4717 69.3887 17.7842 69.4764 19.6217H67.8098C67.722 18.5717 66.8448 17.8717 65.5291 17.8717C64.2133 17.8717 63.3361 18.5717 63.3361 19.5342C63.3361 20.3217 63.9501 20.7592 65.3536 21.1092L66.5817 21.3717C68.7747 21.8967 69.7396 22.7717 69.7396 24.3467C69.7396 26.3592 68.0729 27.6717 65.5291 27.6717C63.0729 27.6717 61.494 26.4467 61.4062 24.4342H62.8975V24.4342Z" fill="white"/>
<path d="M73.0709 17.6963V19.5338H74.5621V20.8463H73.0709V25.2213C73.0709 25.9213 73.334 26.1838 74.0358 26.1838C74.2112 26.1838 74.4744 26.1838 74.5621 26.1838V27.4963C74.3867 27.5838 74.0358 27.5838 73.6849 27.5838C72.106 27.5838 71.4919 26.9713 71.4919 25.4838V20.9338H70.3516V19.6213H71.4919V17.7838H73.0709V17.6963Z" fill="white"/>
<path d="M75.5273 23.5592C75.5273 21.1092 77.0186 19.5342 79.2993 19.5342C81.58 19.5342 83.0712 21.1092 83.0712 23.5592C83.0712 26.0967 81.58 27.5842 79.2993 27.5842C76.9309 27.5842 75.5273 26.0092 75.5273 23.5592ZM81.4045 23.5592C81.4045 21.8092 80.6151 20.8467 79.2993 20.8467C77.9835 20.8467 77.194 21.8092 77.194 23.5592C77.194 25.3092 77.9835 26.2717 79.2993 26.2717C80.6151 26.2717 81.4045 25.2217 81.4045 23.5592Z" fill="white"/>
<path d="M84.3906 19.5342H85.9696V20.9342C86.2327 20.0592 86.9345 19.5342 87.8994 19.5342C88.1626 19.5342 88.338 19.5342 88.4257 19.6217V21.1092C88.338 21.0217 87.9871 21.0217 87.724 21.0217C86.6713 21.0217 86.0573 21.7217 86.0573 22.8592V27.5842H84.3906V19.5342V19.5342Z" fill="white"/>
<path d="M95.9664 25.1338C95.791 26.5338 94.2998 27.5838 92.5454 27.5838C90.2647 27.5838 88.7734 26.0088 88.7734 23.5588C88.7734 21.1088 90.177 19.4463 92.4577 19.4463C94.6506 19.4463 96.0541 20.9338 96.0541 23.3838V23.9088H90.4401V23.9963C90.4401 25.3088 91.3173 26.2713 92.5454 26.2713C93.4226 26.2713 94.1243 25.8338 94.3875 25.1338H95.9664V25.1338ZM90.4401 22.7713H94.3875C94.3875 21.5463 93.598 20.7588 92.4577 20.7588C91.3173 20.7588 90.5278 21.6338 90.4401 22.7713Z" fill="white"/>
<path d="M31.0547 11.0465C31.0547 9.38398 31.9319 8.33398 33.4231 8.33398C34.5635 8.33398 35.4406 9.12148 35.6161 10.1715H34.8266C34.6512 9.55898 34.1249 9.12148 33.4231 9.12148C32.4582 9.12148 31.9319 9.90898 31.9319 11.134C31.9319 12.359 32.5459 13.1465 33.4231 13.1465C34.1249 13.1465 34.6512 12.7965 34.8266 12.184H35.6161C35.4406 13.234 34.6512 13.934 33.4231 13.934C32.0196 13.759 31.0547 12.709 31.0547 11.0465Z" fill="white"/>
<path d="M36.4922 11.659C36.4922 10.3465 37.1939 9.64648 38.3343 9.64648C39.4746 9.64648 40.1764 10.434 40.1764 11.659C40.1764 12.9715 39.4746 13.6715 38.3343 13.6715C37.1939 13.759 36.4922 12.9715 36.4922 11.659ZM39.3869 11.659C39.3869 10.784 39.036 10.3465 38.3343 10.3465C37.6325 10.3465 37.2817 10.8715 37.2817 11.659C37.2817 12.534 37.6325 13.059 38.3343 13.059C39.036 13.059 39.3869 12.534 39.3869 11.659Z" fill="white"/>
<path d="M41.2305 9.73398H42.0199V10.3465H42.1077C42.2831 9.90898 42.7217 9.64648 43.248 9.64648C44.1252 9.64648 44.6515 10.1715 44.6515 11.134V13.6715H43.862V11.309C43.862 10.6965 43.5989 10.3465 42.9849 10.3465C42.3708 10.3465 42.0199 10.6965 42.0199 11.309V13.584H41.2305V9.73398Z" fill="white"/>
<path d="M47.2839 9.64648C48.161 9.64648 48.7751 10.084 48.8628 10.784H48.0733C47.9856 10.5215 47.7225 10.3465 47.2839 10.3465C46.8453 10.3465 46.4944 10.5215 46.4944 10.8715C46.4944 11.134 46.6698 11.2215 47.1084 11.3965L47.7225 11.5715C48.5119 11.7465 48.8628 12.0965 48.8628 12.6215C48.8628 13.3215 48.161 13.8465 47.1961 13.8465C46.2312 13.8465 45.6172 13.409 45.6172 12.709H46.4067C46.4944 12.9715 46.7575 13.234 47.2839 13.234C47.8102 13.234 48.0733 13.059 48.0733 12.709C48.0733 12.4465 47.8979 12.359 47.4593 12.2715L46.7575 12.0965C45.9681 11.9215 45.6172 11.5715 45.6172 10.959C45.7049 10.1715 46.4067 9.64648 47.2839 9.64648Z" fill="white"/>
<path d="M49.9141 9.03359L50.7913 7.80859H51.6684L50.6158 9.03359H49.9141ZM50.0018 9.73359H50.7913V13.6711H50.0018V9.73359Z" fill="white"/>
<path d="M51.9333 14.0215H52.7227C52.8104 14.284 53.1613 14.459 53.6876 14.459C54.3017 14.459 54.7403 14.109 54.7403 13.6715V12.884H54.6525C54.3894 13.3215 53.9508 13.584 53.4245 13.584C52.4596 13.584 51.7578 12.7965 51.7578 11.659C51.7578 10.434 52.3718 9.64648 53.4245 9.64648C53.9508 9.64648 54.4771 9.90898 54.6525 10.3465H54.7403V9.73398H55.5297V13.6715C55.5297 14.5465 54.828 15.159 53.6876 15.159C52.635 15.159 52.021 14.7215 51.9333 14.0215ZM54.7403 11.659C54.7403 10.8715 54.3017 10.3465 53.6876 10.3465C52.9859 10.3465 52.635 10.8715 52.635 11.659C52.635 12.4465 52.9859 12.9715 53.6876 12.9715C54.3017 12.9715 54.7403 12.4465 54.7403 11.659Z" fill="white"/>
<path d="M60.0908 13.6719H59.3013V13.0594H59.2136C59.0382 13.4969 58.5996 13.7594 57.9855 13.7594C57.1083 13.7594 56.582 13.2344 56.582 12.2719V9.73438H57.3715V12.0969C57.3715 12.7094 57.6347 13.0594 58.161 13.0594C58.775 13.0594 59.1259 12.7094 59.1259 12.0969V9.82188H59.9154V13.6719H60.0908Z" fill="white"/>
<path d="M64.6512 12.6215C64.4757 13.3215 63.8617 13.759 62.8968 13.759C61.7564 13.759 61.0547 12.9715 61.0547 11.7465C61.0547 10.5215 61.7564 9.64648 62.8968 9.64648C64.0371 9.64648 64.6512 10.434 64.6512 11.659V11.9215H61.8442C61.8442 12.6215 62.2828 13.059 62.8968 13.059C63.3354 13.059 63.6863 12.884 63.8617 12.6215H64.6512ZM61.9319 11.309H63.9494C63.9494 10.6965 63.5108 10.259 62.9845 10.259C62.3705 10.3465 61.9319 10.6965 61.9319 11.309Z" fill="white"/>
<path d="M65.7891 8.1582H66.5785V13.6707H65.7891V8.1582Z" fill="white"/>
<path d="M67.6328 11.659C67.6328 10.3465 68.3346 9.64648 69.4749 9.64648C70.6153 9.64648 71.317 10.434 71.317 11.659C71.317 12.9715 70.6153 13.6715 69.4749 13.6715C68.3346 13.759 67.6328 12.9715 67.6328 11.659ZM70.5276 11.659C70.5276 10.784 70.1767 10.3465 69.4749 10.3465C68.7732 10.3465 68.4223 10.8715 68.4223 11.659C68.4223 12.534 68.7732 13.059 69.4749 13.059C70.1767 13.059 70.5276 12.534 70.5276 11.659Z" fill="white"/>
<path d="M77.8973 12.6215C77.7218 13.3215 77.1078 13.759 76.1429 13.759C75.0025 13.759 74.3008 12.9715 74.3008 11.7465C74.3008 10.5215 75.0025 9.64648 76.1429 9.64648C77.2832 9.64648 77.8973 10.434 77.8973 11.659V11.9215H75.0903C75.0903 12.6215 75.5289 13.059 76.1429 13.059C76.5815 13.059 76.9324 12.884 77.1078 12.6215H77.8973ZM75.178 11.309H77.1955C77.1955 10.6965 76.7569 10.259 76.2306 10.259C75.6166 10.3465 75.178 10.6965 75.178 11.309Z" fill="white"/>
<path d="M78.9492 9.73398H79.7387V10.3465H79.8264C80.0019 9.90898 80.4404 9.64648 80.9668 9.64648C81.844 9.64648 82.3703 10.1715 82.3703 11.134V13.6715H81.5808V11.309C81.5808 10.6965 81.3176 10.3465 80.7036 10.3465C80.0896 10.3465 79.7387 10.6965 79.7387 11.309V13.584H78.9492V9.73398Z" fill="white"/>
<path d="M89.0379 12.6215C88.8625 13.3215 88.2484 13.759 87.2835 13.759C86.1432 13.759 85.4414 12.9715 85.4414 11.7465C85.4414 10.5215 86.1432 9.64648 87.2835 9.64648C88.4239 9.64648 89.0379 10.434 89.0379 11.659V11.9215H86.2309C86.2309 12.6215 86.6695 13.059 87.2835 13.059C87.7221 13.059 88.073 12.884 88.2484 12.6215H89.0379ZM86.3186 11.309H88.3361C88.3361 10.6965 87.8975 10.259 87.3712 10.259C86.7572 10.3465 86.3186 10.6965 86.3186 11.309Z" fill="white"/>
<path d="M90.1797 8.1582H90.9692V13.6707H90.1797V8.1582Z" fill="white"/>
</svg>
