<svg width="112" height="36" viewBox="0 0 112 36" fill="none" xmlns="http://www.w3.org/2000/svg">
<path d="M111.003 30.0965C111.003 32.9137 108.695 34.8073 105.254 34.8073H7.00226C3.69228 34.8073 0.996866 32.4458 0.996866 29.5389V7.07833C0.996866 4.17379 3.69228 1.80991 7.00226 1.80991H105.254C108.467 1.80991 111.003 4.12287 111.003 7.07833V30.0965ZM105.254 0.808594H7.00226C3.14062 0.808594 0 3.621 0 7.07833V29.5389C0 32.9962 3.1382 35.8086 7.00226 35.8086H105.254C109.288 35.8086 112 33.5102 112 30.0965V7.07591C112.014 3.56282 109.036 0.808594 105.254 0.808594Z" fill="white"/>
<path d="M97.3589 19.5111C98.0049 19.5111 98.6557 19.5111 99.3042 19.5111C100.018 21.2228 100.724 22.9369 101.424 24.6534C102.077 22.9393 102.742 21.2276 103.396 19.5135C104.066 19.5135 104.734 19.5135 105.406 19.5135C103.836 23.143 102.261 26.77 100.679 30.3995C100.049 30.3995 99.4179 30.3995 98.7864 30.3995C99.3647 29.1703 99.9309 27.9362 100.514 26.707C99.4663 24.3092 98.4065 21.9162 97.3589 19.5184V19.5111ZM68.7643 23.2084C69.8869 22.7502 70.9975 22.2774 72.1202 21.8192C71.7428 21.1961 70.9903 20.9076 70.2934 21.1234C69.3764 21.3973 68.7522 22.2483 68.7643 23.2084ZM68.2876 20.4978C69.3353 19.5256 70.8669 19.2905 72.1589 19.9014C73.1389 20.4033 73.7655 21.3901 74.0825 22.4205C72.4081 23.1163 70.7362 23.8121 69.0595 24.5055C69.3183 25.005 69.7708 25.3759 70.3079 25.5335C71.2395 25.7711 72.217 25.3759 72.7179 24.554C73.1582 24.845 73.5986 25.1359 74.0341 25.4365C73.5841 26.1033 72.938 26.6148 72.1855 26.8985C70.8572 27.3931 69.3619 27.0973 68.3215 26.1324C66.7729 24.6946 66.7947 21.9647 68.29 20.4954L68.2876 20.4978ZM59.5045 21.1015C58.3455 21.2688 57.5858 22.4956 57.7334 23.6158C57.806 24.8038 58.9795 25.839 60.1723 25.5675C61.3216 25.3371 61.9531 24.04 61.7475 22.9466C61.6338 21.8701 60.6199 20.9003 59.5045 21.1015ZM57.61 20.2312C58.769 19.3438 60.5885 19.3001 61.6459 20.3815C61.6459 20.1827 61.6459 19.9839 61.6459 19.785H63.2525V26.7118C63.2525 27.8441 62.8871 29.066 61.9652 29.7837C60.5667 30.8407 58.3722 30.7462 57.143 29.4758C56.797 29.1194 56.5139 28.7072 56.3058 28.2562C56.7922 28.0429 57.2858 27.8392 57.7794 27.638C57.9632 28.0186 58.2294 28.3508 58.5609 28.6126C59.3981 29.2479 60.7869 29.0636 61.3386 28.1374C61.6894 27.5846 61.6604 26.9058 61.6628 26.2803C61.0458 26.9155 60.1651 27.221 59.2868 27.1046C57.8737 26.9203 56.6881 25.9433 56.2333 24.5904C55.6961 22.9878 56.2623 21.2204 57.6293 20.2287L57.61 20.2312ZM50.8207 21.1597C49.6496 21.487 49.0374 22.869 49.3834 23.9964C49.652 25.0704 50.8182 25.8754 51.9022 25.5287C53.0709 25.2596 53.7338 23.9018 53.4338 22.7745C53.2233 21.6252 51.9554 20.7839 50.8231 21.1646L50.8207 21.1597ZM50.5739 19.6299C51.8562 19.3559 53.1918 19.7438 54.1282 20.6627C55.5558 22.0859 55.5388 24.6874 54.0581 26.0524C52.5603 27.5677 49.802 27.4343 48.4616 25.7832C47.2494 24.3504 47.3244 21.9889 48.6696 20.6651C49.185 20.1366 49.848 19.7802 50.5714 19.6372L50.5739 19.6299ZM42.5723 21.1719C41.6166 21.5549 41.031 22.5272 41.1399 23.5527C41.2488 24.5783 42.0231 25.4075 43.0369 25.5844C44.3386 25.7251 45.471 24.4352 45.3064 23.1696C45.3064 21.8289 43.8692 20.6845 42.5747 21.1791L42.5723 21.1719ZM42.4247 19.6178C43.816 19.3268 45.2556 19.8238 46.1751 20.91C47.4478 22.4374 47.2469 24.9735 45.6839 26.2294C44.3338 27.3834 42.3691 27.4513 40.9439 26.3942C39.5188 25.3371 39.0107 23.4339 39.7172 21.8047C40.2011 20.6676 41.2198 19.8481 42.4296 19.6178H42.4247ZM91.9874 23.72C91.4333 24.0958 91.4309 25.0317 92.0721 25.3299C93.2891 26.0063 94.8497 25.022 95.0191 23.72C94.0876 23.24 92.8754 23.1309 91.9729 23.7443L91.9874 23.72ZM89.9791 20.8591C90.901 18.9801 93.4851 18.597 95.2079 19.5329C96.1563 20.0542 96.754 21.0434 96.7733 22.1295C96.7927 23.7224 96.7733 25.3177 96.7733 26.9082H95.0167C95.0167 26.5955 95.0167 26.2851 95.0167 25.9772C93.8747 27.781 90.7655 27.4101 89.9598 25.4802C89.4904 24.3431 89.9332 23.0339 90.9954 22.4181C92.239 21.7077 93.7488 21.6471 95.0457 22.258C94.9925 20.5366 92.3213 20.1099 91.5639 21.5574C91.0292 21.3198 90.4776 21.1258 89.9574 20.8591H89.9791ZM86.7659 26.9082C86.7659 23.2545 86.7659 19.6008 86.7659 15.9495H88.5516V26.9082H86.7659ZM79.7346 17.603V21.0919C80.5113 21.0919 81.2904 21.1185 82.0671 21.0773C82.9164 20.99 83.5866 20.316 83.6737 19.4674C83.7027 18.5292 83.0011 17.7267 82.0671 17.6345C81.2856 17.6006 80.4992 17.6345 79.7177 17.6345L79.7346 17.603ZM78.0191 15.9204C79.287 15.9204 80.55 15.9204 81.8203 15.9204C82.7301 15.918 83.6108 16.2356 84.3101 16.8199C85.1424 17.5448 85.5634 18.6358 85.4352 19.7317C85.3069 20.83 84.6464 21.7925 83.6689 22.3041C82.4663 22.9757 81.0485 22.7163 79.737 22.7672V26.8767H78.0191V15.9156V15.9204ZM64.5566 15.9204H66.2406V26.9494H64.5566V15.9204ZM27.8927 18.8322C28.7686 16.8975 30.6051 15.5785 32.7149 15.3652C34.3941 15.1882 36.0636 15.7701 37.2686 16.9557C36.8863 17.3387 36.4943 17.7145 36.1386 18.1194C35.3015 17.3242 34.1715 16.9096 33.0174 16.9775C31.8342 17.0526 30.743 17.6418 30.0268 18.5873C29.3227 19.5159 29.0227 20.6918 29.1945 21.8459C29.3953 23.2666 30.3026 24.4861 31.6043 25.0826C33.1408 25.7832 35.1515 25.4559 36.2717 24.1516C36.6855 23.6206 36.9468 22.9878 37.0291 22.3211C35.7685 22.2847 34.5054 22.3211 33.2448 22.3041V20.653C35.0281 20.653 36.8137 20.653 38.6018 20.653C38.8534 22.0641 38.5921 23.5212 37.859 24.7528C37.017 26.0208 35.6571 26.8525 34.1473 27.0222C32.9206 27.1967 31.6721 26.9834 30.5712 26.4136C27.808 25.0074 26.6297 21.6786 27.8927 18.8419" fill="white"/>
<path d="M28.9803 10.7973H29.8997C30.4248 10.824 30.9377 10.6397 31.3249 10.2809C31.9298 9.72083 32.1233 8.84074 31.804 8.07703C31.4846 7.31574 30.7248 6.83326 29.8997 6.87448H28.9827L28.9803 10.7973ZM28.3125 11.4374V6.23926H29.8973C30.6087 6.20532 31.3007 6.46716 31.8136 6.96176C32.7718 8.03096 32.7718 9.65052 31.8136 10.7197C31.3031 11.2143 30.6087 11.4762 29.8973 11.4422L28.3125 11.4374Z" fill="white"/>
<path d="M34.1366 6.2373H33.4688V11.4354H34.1366V6.2373Z" fill="white"/>
<path d="M36.7864 11.5609C36.3896 11.556 36.0049 11.4275 35.6831 11.1923C35.325 10.9499 35.0709 10.5789 34.9766 10.1547L35.5839 9.90736C35.654 10.1886 35.8089 10.4408 36.0291 10.6299C36.2372 10.819 36.5057 10.9232 36.7864 10.9232C37.0526 10.9305 37.3139 10.8505 37.5316 10.6953C37.73 10.5523 37.8438 10.3195 37.8365 10.0747C37.8486 9.81523 37.7349 9.56551 37.5316 9.40307C37.234 9.20183 36.905 9.05394 36.5566 8.96181C36.1694 8.85755 35.8113 8.6636 35.5113 8.39933C35.2742 8.169 35.1459 7.84654 35.1556 7.51681C35.1556 7.14344 35.3177 6.78946 35.5984 6.54459C35.9129 6.26092 36.3267 6.1106 36.7501 6.12757C37.1348 6.1106 37.5123 6.2294 37.822 6.45973C38.0688 6.63914 38.2575 6.89129 38.3567 7.18223L37.7494 7.43438C37.6938 7.25254 37.58 7.09252 37.4276 6.97857C37.0332 6.69733 36.5033 6.69733 36.1065 6.97857C35.9347 7.10465 35.8355 7.30345 35.8379 7.51438C35.8379 7.70834 35.9299 7.89018 36.0872 8.00656C36.3098 8.16657 36.559 8.2878 36.8227 8.36538C37.0405 8.43327 37.2534 8.51328 37.4639 8.60541C37.6478 8.69026 37.822 8.79452 37.9865 8.91332C38.1583 9.03697 38.2962 9.20183 38.3858 9.39337C38.4777 9.60187 38.5237 9.82735 38.5188 10.0553C38.5237 10.2904 38.4704 10.5232 38.364 10.7317C38.2672 10.9208 38.1244 11.0832 37.9478 11.2045C37.7784 11.3208 37.5897 11.4105 37.3937 11.4736C37.1953 11.5318 36.9921 11.5609 36.7864 11.5609Z" fill="white"/>
<path d="M40.1444 8.69066H41.2622C41.5138 8.70521 41.7606 8.60581 41.9348 8.42154C42.1018 8.25425 42.1962 8.0312 42.2034 7.79602C42.1986 7.56085 42.1018 7.3378 41.9348 7.17293C41.7655 6.9814 41.5187 6.87714 41.2622 6.88926H40.1444V8.69066ZM40.1444 11.4376H39.4766V6.2395H41.2453C41.6687 6.23223 42.0776 6.38982 42.3873 6.67591C42.6946 6.962 42.8688 7.36446 42.8688 7.7839C42.8688 8.20334 42.6946 8.60581 42.3873 8.8919C42.0776 9.18041 41.6687 9.338 41.2453 9.33073H40.1444V11.4376Z" fill="white"/>
<path d="M44.638 10.3392C45.4171 11.1151 46.6753 11.1151 47.4568 10.3392C48.2286 9.49309 48.2286 8.19841 47.4568 7.35226C46.6777 6.57643 45.4195 6.57643 44.638 7.35226C43.871 8.19841 43.871 9.49067 44.638 10.3392ZM47.9528 10.7732C46.9003 11.8206 45.1993 11.8206 44.1468 10.7732C43.1282 9.68948 43.1282 7.9996 44.1468 6.91585C44.6501 6.40913 45.3348 6.12305 46.0462 6.12305C46.7599 6.12305 47.4447 6.40913 47.9455 6.91585C48.9666 7.99718 48.9666 9.68948 47.9455 10.7708L47.9528 10.7732Z" fill="white"/>
<path d="M49.6523 11.4378V6.2373H50.4556L52.9768 10.2838H53.0083L52.9768 9.28247V6.2373H53.6447V11.4378H52.9478L50.3105 7.1974H50.2814L50.3105 8.19629V11.4378H49.6523Z" fill="white"/>
<path d="M55.5019 6.2373H54.8438V11.4354H55.5019V6.2373Z" fill="white"/>
<path d="M57.3752 10.817H58.7157C58.9528 10.8242 59.1802 10.7273 59.3399 10.5478C59.4899 10.3878 59.5746 10.1793 59.5794 9.96112C59.5673 9.48107 59.1681 9.10042 58.6866 9.11012H57.3776V10.817H57.3752ZM57.3752 8.4846H58.585C58.8124 8.4943 59.035 8.40217 59.1899 8.23488C59.4875 7.93181 59.4875 7.44449 59.1899 7.14385C59.0423 6.97899 58.827 6.88928 58.6068 6.89655H57.3752V8.4846ZM56.6953 11.4376V6.23952H58.5705C58.96 6.23224 59.3375 6.37772 59.6254 6.64198C59.9158 6.89656 60.0803 7.2675 60.0706 7.653C60.0755 7.88575 60.0077 8.11365 59.8771 8.30761C59.7512 8.49672 59.5746 8.64462 59.3689 8.73675V8.76342C59.6182 8.84827 59.8384 9.00587 59.998 9.21437C60.1602 9.4253 60.2473 9.68715 60.2448 9.95384C60.2593 10.3636 60.0876 10.7588 59.7779 11.0279C59.4754 11.3043 59.081 11.4546 58.6721 11.4498L56.6953 11.4376Z" fill="white"/>
<path d="M61.1484 11.4378V6.2373H61.8138V10.8002H64.0713V11.4378H61.1484Z" fill="white"/>
<path d="M67.9317 6.87494H65.5653V8.52118H67.7091V9.1467H65.5653V10.7954H67.9317V11.4378H64.9023V6.2373H67.9317V6.87494Z" fill="white"/>
<path d="M73.7442 6.87494H71.3802V8.52118H73.524V9.1467H71.3802V10.7954H73.7442V11.4378H70.7148V6.2373H73.7442V6.87494Z" fill="white"/>
<path d="M74.7852 11.4378V6.2373H75.5909L78.1121 10.2838H78.1411L78.1121 9.28247V6.2373H78.7799V11.4378H78.083L75.4457 7.1974H75.4167L75.4457 8.19629V11.4378H74.7852Z" fill="white"/>
<path d="M22.1048 21.9068L18.548 23.856L16.4067 21.7079L16.6027 21.5116L18.6206 19.4871L22.1024 21.3976C22.2742 21.4922 22.3516 21.594 22.3516 21.6667C22.3516 21.7395 22.2742 21.8122 22.1024 21.9019L22.1048 21.9068ZM9.07053 29.0445L15.8357 22.268L16.0051 22.4377L17.8222 24.2537L9.07053 29.0445ZM7.19535 29.7864C7.0647 29.7185 6.98001 29.5876 6.97033 29.4397V13.8744C6.97517 13.7508 7.03567 13.6368 7.13003 13.5592L15.2647 21.7128L7.19535 29.7864ZM16.4672 18.3064L17.8778 19.0798L15.8284 21.1358L8.83826 14.1314L16.4672 18.3064ZM22.4798 20.6897L18.7295 18.6337L8.18739 12.861C7.92849 12.7106 7.6333 12.6331 7.33569 12.6379C7.26069 12.6379 7.1881 12.6452 7.11552 12.6622C7.09616 12.6622 7.09616 12.6888 7.08164 12.6937C6.55175 12.8367 6.18155 13.3119 6.17188 13.8623V29.4275C6.18155 30.0312 6.62676 30.5379 7.22198 30.6252C7.24376 30.6349 7.26552 30.6422 7.28972 30.6495H7.33811C7.65266 30.6519 7.96237 30.567 8.23336 30.4046L18.6787 24.6876L22.4944 22.5977C22.896 22.4498 23.1622 22.0668 23.1622 21.6376C23.1622 21.2085 22.896 20.8254 22.4944 20.6775L22.4798 20.6897Z" fill="white"/>
</svg>
